<svg width="100" height="100" viewBox="0 0 100 100" fill="none" xmlns="http://www.w3.org/2000/svg">
<path d="M50 100C77.6142 100 100 77.6142 100 50C100 22.3858 77.6142 0 50 0C22.3858 0 0 22.3858 0 50C0 77.6142 22.3858 100 50 100Z" fill="white"/>
<path d="M63.4857 38H36.3429C33.9444 38 32 39.9444 32 42.3429V67.2505C32 69.649 33.9444 71.5934 36.3429 71.5934H63.4857C65.8842 71.5934 67.8286 69.649 67.8286 67.2505V42.3429C67.8286 39.9444 65.8842 38 63.4857 38Z" stroke="black" stroke-width="2"/>
<path d="M55.385 29.6176C56.6077 30.8779 57.5616 33.2991 57.6841 38.073C56.3282 38.092 55.4205 38.0843 54.1483 38.0735C53.1063 38.0647 51.8197 38.0539 49.8421 38.0539C47.8632 38.0539 46.9294 38.0647 46.173 38.0735C45.1595 38.0853 44.4644 38.0934 42 38.0667C42.1231 33.2969 43.0768 30.8773 44.2989 29.6176C45.5809 28.296 47.399 28 49.842 28C52.285 28 54.103 28.296 55.385 29.6176Z" stroke="black" stroke-width="2"/>
</svg>
